<svg width="151" height="97" viewBox="0 0 151 97" fill="none" xmlns="http://www.w3.org/2000/svg">
    <path
        d="M114 18V24.5H103V18H97V6.5H90.5V1H85.5V6.5H78.5V12H73V18H68V24.5H61.5V31H49.5V37.5H43V43H37V66H26V62H20.5V49.5H13V43H1V62H7V73.5H13V79H26V85H49.5V90H61.5V96H127V90H138.5V85H143.5V79H150.5V53.5H143.5V6.5H138.5V1H132.5V6.5H127V12H121.5V18H114Z"
        fill="black" stroke="black" />
    <path d="M85 29H73V24H79.5V17.5H85V12H91V24H85V29Z" fill="#F5F5F5" />
    <path d="M138.5 12H132.5V17.5H127V24H132.5V29H138.5V12Z" fill="#F5F5F5" />
    <path d="M138.5 63H123V67H138.5V63Z" fill="#F5F5F5" />
    <path d="M91 63H73V67H91V63Z" fill="#F5F5F5" />
    <path d="M85 29H73V24H79.5V17.5H85V12H91V24H85V29Z" stroke="black" />
    <path d="M138.5 12H132.5V17.5H127V24H132.5V29H138.5V12Z" stroke="black" />
    <path d="M138.5 63H123V67H138.5V63Z" stroke="black" />
    <path d="M91 63H73V67H91V63Z" stroke="black" />
</svg>